External Loads File
version=1
nRows=93
nColumns=13
Range=5.000000e-03-10 seconds
endheader
time 	forceRightX 	forceRightY 	forceRightZ 	pointRightX 	pointRightY 	pointRightZ 	forceLeftX 	forceLeftY 	forceLeftZ 	pointLeftX 	pointLeftY 	pointLeftZ 		
0.005000 40.329013 267.509342 -0.000000 0.143266 0.190828 -0.165788 -36.396150 147.273445 -0.000000 0.349716 0.447470 -0.417330
0.010000 39.839601 266.969705 -0.000000 0.142836 0.191201 -0.165786 -34.294520 150.567666 -0.000000 0.349940 0.447117 -0.417330
0.015000 39.205384 266.245161 -0.000000 0.142464 0.191612 -0.165791 -32.383095 153.558848 -0.000000 0.350170 0.446826 -0.417334
0.020000 38.300804 265.257816 -0.000000 0.142203 0.191957 -0.165797 -30.763106 156.141050 -0.000000 0.350337 0.446555 -0.417324
0.025000 37.168824 263.949340 -0.000000 0.142042 0.192189 -0.165820 -29.413284 158.268345 -0.000000 0.350526 0.446286 -0.417376
0.030000 35.931950 262.303661 -0.000000 0.141862 0.192416 -0.165844 -28.292452 159.888204 -0.000000 0.350682 0.445979 -0.417379
0.035000 34.643144 260.349803 -0.000000 0.141666 0.192662 -0.165880 -27.378578 160.987824 -0.000000 0.350864 0.445695 -0.417316
0.040000 33.185728 258.152456 -0.000000 0.141521 0.192835 -0.165881 -26.693236 161.633093 -0.000000 0.350980 0.445482 -0.417322
0.045000 31.748618 255.744254 -0.000000 0.141392 0.193044 -0.165874 -26.053353 161.967083 -0.000000 0.351093 0.445275 -0.417327
0.050000 30.408105 253.178922 -0.000000 0.141256 0.193281 -0.165905 -25.388809 162.088247 -0.000000 0.351225 0.445066 -0.417349
0.055000 29.200783 250.510936 -0.000000 0.141113 0.193511 -0.165890 -24.709597 162.032994 -0.000000 0.351394 0.444857 -0.417328
0.060000 28.204571 247.781750 -0.000000 0.140972 0.193754 -0.165876 -24.045615 161.791670 -0.000000 0.351603 0.444577 -0.417311
0.065000 27.407044 245.035836 -0.000000 0.140797 0.193975 -0.165870 -23.515937 161.311943 -0.000000 0.351817 0.444261 -0.417330
0.070000 26.806909 242.305342 -0.000000 0.140592 0.194192 -0.165847 -23.213710 160.549563 -0.000000 0.352081 0.443979 -0.417321
0.075000 26.463894 239.607238 -0.000000 0.140323 0.194464 -0.165866 -23.126783 159.516347 -0.000000 0.352396 0.443685 -0.417317
0.080000 26.330823 236.978951 -0.000000 0.140037 0.194765 -0.165840 -23.266554 158.253185 -0.000000 0.352719 0.443350 -0.417317
0.085000 26.439855 234.470088 -0.000000 0.139675 0.195088 -0.165819 -23.587543 156.804049 -0.000000 0.353095 0.443018 -0.417310
0.090000 26.802896 232.152450 -0.000000 0.139291 0.195555 -0.165832 -24.045830 155.209380 -0.000000 0.353453 0.442612 -0.417307
0.095000 27.237298 230.144728 -0.000000 0.138896 0.195891 -0.165866 -24.699039 153.507022 -0.000000 0.353862 0.442255 -0.417287
0.100000 27.856581 228.559565 -0.000000 0.138471 0.196270 -0.165905 -25.410902 151.768040 -0.000000 0.354315 0.441837 -0.417278
0.105000 28.704827 227.524531 -0.000000 0.137918 0.196804 -0.165876 -26.121545 150.056901 -0.000000 0.354730 0.441403 -0.417320
0.110000 29.739531 227.150785 -0.000000 0.137363 0.197400 -0.165885 -26.849859 148.436743 -0.000000 0.355153 0.440925 -0.417357
0.115000 30.887535 227.504396 -0.000000 0.136785 0.197880 -0.165931 -27.651721 146.955422 -0.000000 0.355601 0.440477 -0.417363
0.120000 32.278614 228.563106 -0.000000 0.136105 0.198375 -0.165887 -28.453660 145.666346 -0.000000 0.356067 0.440004 -0.417334
0.125000 33.851518 230.257954 -0.000000 0.135490 0.199043 -0.165947 -29.261437 144.618654 -0.000000 0.356484 0.439513 -0.417354
0.130000 35.520114 232.450740 -0.000000 0.134762 0.199594 -0.165906 -30.038851 143.889940 -0.000000 0.356857 0.439018 -0.417401
0.135000 37.138423 234.960652 -0.000000 0.134146 0.200062 -0.165963 -30.790484 143.530627 -0.000000 0.357241 0.438565 -0.417440
0.140000 38.810509 237.556287 -0.000000 0.133523 0.200640 -0.165961 -31.420767 143.566990 -0.000000 0.357602 0.438120 -0.417436
0.145000 40.487950 240.052339 -0.000000 0.132890 0.201250 -0.165948 -31.955828 143.976363 -0.000000 0.357897 0.437592 -0.417463
0.150000 41.882350 242.334839 -0.000000 0.132398 0.201706 -0.165944 -32.541615 144.713354 -0.000000 0.358166 0.437155 -0.417456
0.155000 43.098288 244.251233 -0.000000 0.131885 0.202171 -0.165946 -33.063790 145.785826 -0.000000 0.358401 0.436782 -0.417451
0.160000 44.115588 245.711118 -0.000000 0.131356 0.202697 -0.165983 -33.480476 147.164236 -0.000000 0.358589 0.436412 -0.417502
0.165000 44.857378 246.698394 -0.000000 0.130953 0.203141 -0.165980 -33.788193 148.796098 -0.000000 0.358865 0.435940 -0.417370
0.170000 45.156496 247.286264 -0.000000 0.130552 0.203492 -0.165954 -34.070457 150.600925 -0.000000 0.358996 0.435545 -0.417398
0.175000 45.175398 247.543386 -0.000000 0.130169 0.203864 -0.165924 -34.261989 152.525027 -0.000000 0.359128 0.435200 -0.417403
0.180000 44.989670 247.573519 -0.000000 0.129839 0.204321 -0.165931 -34.362892 154.509298 -0.000000 0.359237 0.434870 -0.417435
0.185000 44.763833 247.454102 -0.000000 0.129476 0.204837 -0.165950 -34.306541 156.524296 -0.000000 0.359357 0.434469 -0.417440
0.190000 44.389252 247.289358 -0.000000 0.129143 0.205174 -0.165949 -34.211376 158.492466 -0.000000 0.359477 0.434035 -0.417468
0.195000 44.040221 247.102522 -0.000000 0.128755 0.205480 -0.165927 -34.031577 160.359675 -0.000000 0.359626 0.433618 -0.417500
0.200000 43.800312 246.901678 -0.000000 0.128392 0.205935 -0.165930 -33.765004 162.067759 -0.000000 0.359809 0.433263 -0.417491
0.205000 43.710924 246.684117 -0.000000 0.128043 0.206423 -0.165959 -33.444243 163.549360 -0.000000 0.360009 0.432845 -0.417523
0.210000 43.870989 246.437436 -0.000000 0.127623 0.206916 -0.165928 -33.092321 164.724924 -0.000000 0.360264 0.432315 -0.417529
0.215000 44.130075 246.203078 -0.000000 0.127158 0.207375 -0.165922 -32.888716 165.498616 -0.000000 0.360535 0.431873 -0.417543
0.220000 44.613813 245.986805 -0.000000 0.126719 0.207889 -0.165930 -32.795234 165.857296 -0.000000 0.360875 0.431369 -0.417552
0.225000 45.430429 245.813695 -0.000000 0.126209 0.208571 -0.165958 -32.774553 165.817966 -0.000000 0.361275 0.430822 -0.417520
0.230000 46.424816 245.775243 -0.000000 0.125600 0.209125 -0.166120 -32.956598 165.398370 -0.000000 0.361696 0.430256 -0.417545
0.235000 47.573761 245.956189 -0.000000 0.125047 0.209667 -0.166155 -33.359116 164.673956 -0.000000 0.362118 0.429721 -0.417551
0.240000 49.145130 246.382406 -0.000000 0.124439 0.210366 -0.166152 -33.799049 163.773097 -0.000000 0.362610 0.429113 -0.417551
0.245000 50.869186 247.141198 -0.000000 0.123856 0.210997 -0.166183 -34.434837 162.755093 -0.000000 0.363079 0.428541 -0.417562
0.250000 52.765579 248.189948 -0.000000 0.123276 0.211646 -0.166216 -35.174893 161.733567 -0.000000 0.363482 0.427946 -0.417522
0.255000 54.846140 249.421696 -0.000000 0.122673 0.212329 -0.166186 -35.898235 160.817074 -0.000000 0.363968 0.427329 -0.417523
0.260000 56.697726 250.794643 -0.000000 0.122191 0.212847 -0.166213 -36.760024 160.028453 -0.000000 0.364387 0.426791 -0.417522
0.265000 58.451549 252.144269 -0.000000 0.121653 0.213369 -0.166205 -37.558938 159.461030 -0.000000 0.364770 0.426287 -0.417540
0.270000 59.914346 253.380038 -0.000000 0.121226 0.213853 -0.166223 -38.302298 159.148354 -0.000000 0.365099 0.425797 -0.417553
0.275000 61.034183 254.389385 -0.000000 0.120921 0.214387 -0.166231 -38.933798 159.101518 -0.000000 0.365408 0.425375 -0.417533
0.280000 61.556682 255.134072 -0.000000 0.120654 0.214692 -0.166209 -39.535680 159.270182 -0.000000 0.365609 0.425075 -0.417559
0.285000 61.600345 255.522567 -0.000000 0.120471 0.214923 -0.166195 -39.952835 159.657826 -0.000000 0.365750 0.424798 -0.417607
0.290000 61.184379 255.524915 -0.000000 0.120338 0.215080 -0.166174 -40.132502 160.232440 -0.000000 0.365838 0.424557 -0.417616
0.295000 60.315207 255.150291 -0.000000 0.120313 0.215190 -0.166180 -40.101003 160.925882 -0.000000 0.365891 0.424401 -0.417623
0.300000 59.086542 254.413568 -0.000000 0.120326 0.215234 -0.166168 -39.873529 161.670217 -0.000000 0.365896 0.424303 -0.417630
0.305000 57.585599 253.347545 -0.000000 0.120409 0.215237 -0.166166 -39.501006 162.383467 -0.000000 0.365856 0.424229 -0.417638
0.310000 55.885385 251.998366 -0.000000 0.120536 0.215203 -0.166154 -39.068961 162.968456 -0.000000 0.365797 0.424230 -0.417641
0.315000 54.079756 250.409560 -0.000000 0.120698 0.215128 -0.166165 -38.624177 163.363764 -0.000000 0.365712 0.424269 -0.417627
0.320000 52.256434 248.621006 -0.000000 0.120873 0.215004 -0.166169 -38.161332 163.570820 -0.000000 0.365624 0.424334 -0.417607
0.325000 50.522134 246.665734 -0.000000 0.121049 0.214904 -0.166163 -37.639432 163.623172 -0.000000 0.365525 0.424419 -0.417596
0.330000 48.894401 244.597455 -0.000000 0.121230 0.214785 -0.166155 -37.084986 163.526413 -0.000000 0.365421 0.424525 -0.417591
0.335000 47.412071 242.464549 -0.000000 0.121391 0.214633 -0.166154 -36.515161 163.271602 -0.000000 0.365325 0.424648 -0.417594
0.340000 46.131466 240.308181 -0.000000 0.121574 0.214519 -0.166148 -35.935847 162.839764 -0.000000 0.365247 0.424751 -0.417601
0.345000 44.997773 238.182693 -0.000000 0.121766 0.214358 -0.166156 -35.418756 162.189590 -0.000000 0.365191 0.424860 -0.417595
0.350000 44.041977 236.109455 -0.000000 0.121939 0.214206 -0.166162 -34.940620 161.310649 -0.000000 0.365173 0.424984 -0.417587
0.355000 43.241439 234.112903 -0.000000 0.122072 0.214032 -0.166173 -34.495195 160.199804 -0.000000 0.365169 0.425098 -0.417589
0.360000 42.608685 232.227090 -0.000000 0.122192 0.213871 -0.166149 -34.097304 158.832399 -0.000000 0.365183 0.425198 -0.417586
0.365000 42.168524 230.503458 -0.000000 0.122288 0.213739 -0.166144 -33.796381 157.161471 -0.000000 0.365229 0.425299 -0.417552
0.370000 41.905910 228.999063 -0.000000 0.122379 0.213627 -0.166157 -33.636957 155.171819 -0.000000 0.365282 0.425394 -0.417545
0.375000 41.789082 227.754721 -0.000000 0.122446 0.213511 -0.166160 -33.621704 152.902310 -0.000000 0.365335 0.425513 -0.417541
0.380000 41.776793 226.794415 -0.000000 0.122522 0.213381 -0.166169 -33.745159 150.416896 -0.000000 0.365376 0.425652 -0.417537
0.385000 41.907212 226.121634 -0.000000 0.122610 0.213294 -0.166158 -33.945237 147.815970 -0.000000 0.365429 0.425805 -0.417515
0.390000 42.162225 225.752623 -0.000000 0.122672 0.213168 -0.166163 -34.189385 145.222991 -0.000000 0.365466 0.425961 -0.417491
0.395000 42.541409 225.685228 -0.000000 0.122732 0.213032 -0.166173 -34.444410 142.762398 -0.000000 0.365477 0.426152 -0.417500
0.400000 43.014201 225.880346 -0.000000 0.122808 0.212855 -0.166209 -34.703048 140.528185 -0.000000 0.365463 0.426363 -0.417504
0.405000 43.525660 226.261649 -0.000000 0.122893 0.212651 -0.166218 -34.944532 138.593952 -0.000000 0.365410 0.426604 -0.417492
0.410000 44.044592 226.728732 -0.000000 0.123023 0.212476 -0.166213 -35.116445 137.005942 -0.000000 0.365338 0.426840 -0.417467
0.415000 44.397988 227.207294 -0.000000 0.123209 0.212222 -0.166249 -35.267368 135.745609 -0.000000 0.365189 0.427094 -0.417474
0.420000 44.528962 227.611580 -0.000000 0.123437 0.211887 -0.166299 -35.373844 134.808738 -0.000000 0.365006 0.427417 -0.417488
0.425000 44.433792 227.869538 -0.000000 0.123666 0.211497 -0.166267 -35.365931 134.218790 -0.000000 0.364792 0.427804 -0.417474
0.430000 44.107030 227.936351 -0.000000 0.123949 0.211105 -0.166254 -35.194810 133.983433 -0.000000 0.364524 0.428240 -0.417460
0.435000 43.642205 227.762900 -0.000000 0.124270 0.210739 -0.166244 -34.805852 134.084631 -0.000000 0.364219 0.428642 -0.417468
0.440000 42.957574 227.352280 -0.000000 0.124688 0.210277 -0.166251 -34.297351 134.449082 -0.000000 0.363872 0.429071 -0.417471
0.445000 42.146027 226.712842 -0.000000 0.125082 0.209738 -0.166252 -33.707870 135.006305 -0.000000 0.363505 0.429601 -0.417439
0.450000 41.391084 225.871646 -0.000000 0.125507 0.209303 -0.166229 -33.037004 135.683664 -0.000000 0.363104 0.430086 -0.417420
0.455000 40.678120 224.896015 -0.000000 0.125926 0.208876 -0.166203 -32.363053 136.402788 -0.000000 0.362699 0.430583 -0.417425
0.460000 39.865785 223.854821 -0.000000 0.126468 0.208323 -0.166040 -31.788194 137.108767 -0.000000 0.362272 0.431108 -0.417426
0.465000 39.111112 222.746133 -0.000000 0.126921 0.207761 -0.166036 -31.209147 137.809276 -0.000000 0.361853 0.431635 -0.417372
